<?xml version="1.0" encoding="utf-8"?>
<!-- Generator: Adobe Illustrator 25.2.0, SVG Export Plug-In . SVG Version: 6.00 Build 0)  -->
<svg version="1.1" id="Almond_Large" xmlns="http://www.w3.org/2000/svg" xmlns:xlink="http://www.w3.org/1999/xlink" x="0px"
	 y="0px" viewBox="0 0 607 1003" style="enable-background:new 0 0 607 1003;" xml:space="preserve">
<style type="text/css">
	.st0{fill:#D83535;}
</style>
<g>
	<path class="st0" d="M350,0c10.7,0,21.3,0,32,0c1.9,0.4,3.8,0.9,5.8,1.1c13.5,1.6,26.6,4.2,38.7,10.7c18.4,9.8,24.5,24.1,18.6,44.2
		c-5.7,19.5-18.6,34.4-32.5,48.5c-5.1,5.2-10.5,10.7-16.9,13.8c-42.9,21-85.8,41.8-129.3,61.7c-19.6,9-40.3,15.6-60.6,23
		c-5.7,2.1-11.9,2.7-17.9,4c-2,0-4,0-6,0c-4.9-1.5-10-2.5-14.6-4.5c-11.7-5.2-19.4-14.8-26.1-25.3c-9-14.1-15.7-29.1-20.2-45.2
		c0-4.7,0-9.3,0-14c2.9-12.8,9.8-23.1,20.1-31.2c4.8-3.8,9.7-7.7,15.1-10.6c18.2-9.5,36.9-18.1,54.9-27.9
		c35.1-19,72.5-32,110.9-42.2C331.2,3.7,340.6,2,350,0z"/>
	<path class="st0" d="M276,307c0-5,0-10,0-15c0.3-0.6,0.9-1.1,0.9-1.7c1.2-11.8,6.6-21.4,14.6-29.9c12.7-13.4,28.1-23.5,43.6-33.2
		c37.9-23.7,78.9-41.1,119.4-59.7c27.6-12.6,56-21.2,86.5-21.5c14.9-0.2,29.7,0,43.7,5.9c11.2,4.7,18.6,12.7,20.6,25
		c1.7,10.1,0,19.9-3.3,29.5c-7.3,21.3-19.6,39.6-33.8,56.7c-4.4,5.3-9.8,10.1-15.5,14c-12.9,8.8-26,17.5-39.5,25.3
		c-36.6,21.1-73.7,41.3-113.1,56.9c-15.5,6.2-30.9,12.8-48.1,13.6c-30,1.4-56.9-14.4-68.6-42C280,323.4,278.4,315,276,307z"/>
	<path class="st0" d="M217,553c0-2.3,0-4.7,0-7c2.4-10.8,7.7-20,15.3-27.9c4.6-4.8,9.3-9.6,14.6-13.6c18.2-14,36.8-27.5,54.9-41.6
		c32-24.8,65.9-46.8,99.9-68.9c14.5-9.4,29.1-18.2,46.3-21.4c6.7-1.3,13.4-2.3,20.1-3.5c4,0,8,0,12,0c1.6,0.4,3.1,0.9,4.8,1.1
		c19.4,2.2,28.7,13.4,26.1,32.6c-2.6,18.8-10.5,35.8-21.3,51.2c-13.2,18.8-27.7,36.7-45,52.1c-6.7,6-13.1,12.3-19.5,18.6
		c-27.3,26.9-57.1,50.5-90.6,69.2c-12.8,7.1-26.1,12.9-40.4,16.1c-6,0-12,0-18,0c-1.3-0.4-2.5-0.9-3.8-1.1
		c-26.1-4-47.5-23.7-53.6-49.3C218.1,557.4,217.5,555.2,217,553z"/>
	<path class="st0" d="M1,957c0-5,0-10,0-15c0.6-1.8,1.3-3.6,1.9-5.5c3.9-13.3,13.5-22.5,23.3-31.1c13.2-11.7,27.3-22.3,40.8-33.6
		c31.4-26.4,64.6-50.5,99.2-72.5c11.4-7.3,24-12.1,37.3-15c5.5-1.2,11-2.2,16.5-3.3c5.7,0,11.3,0,17,0c1.4,0.4,2.8,0.9,4.3,1.2
		c11.4,2.4,17.9,7.9,19.2,18.1c0.8,6.2,0.9,12.7-0.2,18.8c-5.1,28.7-18.3,53.5-39.2,73.5c-29.4,28-61.5,52.8-94.8,76
		c-14.2,10-28,20.9-44.4,27.2c-7.1,2.7-14.5,4.8-21.8,7.2c-6.3,0-12.7,0-19,0c-0.2-0.2-0.4-0.7-0.6-0.7
		c-17.4-4.1-27.9-15.7-34.4-31.6C4.1,966.2,2.6,961.6,1,957z"/>
</g>
</svg>
