<?xml version="1.0" encoding="utf-8"?>
<!-- Generator: Adobe Illustrator 25.2.0, SVG Export Plug-In . SVG Version: 6.00 Build 0)  -->
<svg version="1.1" id="Square_Large" xmlns="http://www.w3.org/2000/svg" xmlns:xlink="http://www.w3.org/1999/xlink" x="0px"
	 y="0px" viewBox="0 0 623 1024" style="enable-background:new 0 0 623 1024;" xml:space="preserve">
<style type="text/css">
	.st0{fill:#C12D2D;}
</style>
<g>
	<path class="st0" d="M187.1,228c-2,0-4,0-6,0c-4.9-1.5-10-2.5-14.6-4.5c-11.7-5.2-19.4-14.8-26.1-25.3c-9-14.1-15.7-29.1-20.2-45.2
		c0-4.7,0-9.3,0-14c4.3-19.4,17.8-31.4,33.7-41.3c8.3-5.2,16.8-10.3,25.5-14.7c39.6-20,80.4-37,122.5-50.9
		C337.3,20.4,373,9.7,409.6,2.4c4.2-0.9,7.4-0.4,10,3.2c6.4,8.9,14.2,17.1,19.2,26.7c11.5,22.2,17.6,46,16.9,71.2
		c0,1.6-1.2,4-2.6,4.8c-14.2,8.3-28.1,17.3-43,24.4c-50.6,24.1-101.3,47.8-152.4,70.8c-18.7,8.4-38.4,14.8-57.7,21.8
		C196,226.7,191.5,227.1,187.1,228z"/>
	<path class="st0" d="M276.1,328c0-5,0-10,0-15c0.3-0.7,0.9-1.4,1-2.2c1.1-10.3,5.5-19.1,12.2-26.8c10.6-12.2,23.5-21.8,37.3-29.8
		c25.6-14.9,51.7-28.8,77.6-43.1c49.9-27.6,102.1-50.3,155.1-71.5c4.3-1.7,6.8-1.1,9.9,2.3c18.5,19.8,31.8,42.8,41.5,67.8
		c5,12.8,7.4,26.5,11,39.9c0.8,3.1,0,5.3-2.9,7.2c-38.3,24.8-74.8,52.4-115.8,72.8c-34.8,17.4-69.4,35.2-104.5,51.8
		c-14.5,6.8-29.8,11.9-46.3,12.7c-30.3,1.4-56.9-14.4-68.8-42.5C280,344.1,278.4,335.9,276.1,328z"/>
	<path class="st0" d="M217.1,567c5.1-22.5,22.2-35.4,38.8-48.8c45.7-37.1,95.4-68.6,144.4-101c17.4-11.5,35.2-22.3,53.1-32.7
		c7-4.1,14.9-6.5,22.6-9.4c1.3-0.5,3.7-0.1,4.8,0.9c20.4,19,38,40.1,48.9,66.2c1.1,2.7,1.2,4.7-0.9,7.2
		c-27.6,33.3-57.2,64.6-91.3,91.4c-34.3,27-68.7,53.9-106.6,75.7c-11.1,6.4-22.6,12-35.6,13.7c-0.4,0.1-0.8,0.5-1.2,0.8
		c-6,0-12,0-18,0c-1.3-0.4-2.5-0.9-3.8-1.1c-26.1-4-47.5-23.7-53.6-49.3c-0.5-2.2-1.1-4.4-1.7-6.6
		C217.1,571.7,217.1,569.3,217.1,567z"/>
	<path class="st0" d="M1.1,964c4.9-21.7,21.8-34.1,37-48c29.6-27.2,63.3-48.7,95.5-72.4c28-20.7,58.4-37.2,90.4-50.7
		c3.4-1.4,6-1.4,9.2,0.6c15.7,9.8,26.5,23.6,34,40.2c3.3,7.3,6,14.8,8.3,22.5c0.7,2.4,0,6.1-1.5,8.1c-19.1,26.1-41.2,49.3-67.3,68.5
		c-24.9,18.2-49.3,37-74.8,54.3c-17.3,11.7-34.5,24-54.4,31.2c-6,2.2-12.2,3.8-18.4,5.6c-5.7,0-11.3,0-17,0
		c-0.4-0.3-0.8-0.7-1.2-0.8c-16.7-3.6-27.2-14.4-33.8-29.4c-2.5-5.7-4-11.8-6-17.8C1.1,972,1.1,968,1.1,964z"/>
</g>
</svg>
