<?xml version="1.0" encoding="utf-8"?>
<!-- Generator: Adobe Illustrator 25.2.0, SVG Export Plug-In . SVG Version: 6.00 Build 0)  -->
<svg version="1.1" id="Basic_Large" xmlns="http://www.w3.org/2000/svg" xmlns:xlink="http://www.w3.org/1999/xlink" x="0px"
	 y="0px" viewBox="0 0 607 1009" style="enable-background:new 0 0 607 1009;" xml:space="preserve">
<style type="text/css">
	.st0{fill:#D62D2D;}
</style>
<g>
	<path class="st0" d="M373.5,0c5.7,0,11.3,0,17,0c3.5,0.7,7.1,1.4,10.6,2.2c21.3,4.5,37.3,15.4,43.7,37.4c1,3.5,1.8,7,2.7,10.4
		c0,4.7,0,9.3,0,14c-0.3,0.6-0.8,1.1-0.9,1.7c-3.6,25.5-17.8,43.9-39.5,56.3c-14.3,8.2-29.3,15.1-44.4,21.7
		c-37.6,16.4-75.3,32.5-113.2,48.2c-16.1,6.7-32.5,12.4-48.9,18.3c-4.2,1.5-8.7,1.9-13.1,2.8c-2,0-4,0-6,0c-4.9-1.5-10-2.5-14.6-4.5
		c-11.7-5.2-19.4-14.8-26.1-25.3c-9-14.1-15.7-29.1-20.2-45.2c0-4.7,0-9.3,0-14c3.7-17.1,14.8-28.9,28.9-37.8
		c12.6-8,25.6-15.7,39.1-21.9c25.3-11.6,51.3-21.8,76.9-33C294.2,18.6,324,8.9,354.9,2.7C361,1.5,367.3,0.9,373.5,0z"/>
	<path class="st0" d="M275.5,313c0-5,0-10,0-15c0.3-0.6,0.9-1.1,0.9-1.7c1.4-14.1,8.8-24.9,18.9-34.1c16.6-15.1,35.2-27.5,54.8-38.1
		c20.9-11.3,42.5-21.2,63.7-32c27.4-14.1,55.8-25.9,85-35.6c12.1-4,24.5-7.1,36.8-10.6c5.7,0,11.3,0,17,0c1.2,0.4,2.4,0.9,3.7,1.1
		c27.3,3.9,49.9,30.1,50.2,57.7c0.2,16.3-5.6,30.6-15.2,43c-19.2,24.8-44.3,43.4-70.7,59.5c-20.8,12.7-43.3,22.7-65.3,33.5
		c-16.6,8.1-33.2,16.3-50.4,23.1c-17.2,6.8-34.3,14.2-53.4,15.1c-30.3,1.4-56.9-14.4-68.8-42.4C279.5,329.1,277.9,320.9,275.5,313z"
		/>
	<path class="st0" d="M216.5,559c0-2.3,0-4.7,0-7c2.1-8.8,5.3-17.3,11.8-23.7c10.2-10,20.5-20.1,31.9-28.5
		c30.7-22.8,62.4-44.4,93.1-67.2c23.8-17.6,48.6-33.4,74.9-46.8c19.9-10.2,40.9-16.4,63.4-7.7c18.5,7.1,30.7,19.1,33,39.8
		c2.6,23.1-6.3,42.2-21.5,58c-13,13.5-28,25-42.6,36.8c-8.9,7.2-18.9,13.1-28.2,19.8c-24,17.1-47.9,34.4-72,51.2
		c-8.4,5.9-17.4,11.1-26.3,16.2c-12.7,7.2-26.1,12.9-40.4,16.1c-6,0-12,0-18,0c-1.3-0.4-2.5-0.9-3.8-1.1
		c-26.1-4-47.5-23.7-53.6-49.3C217.7,563.4,217.1,561.2,216.5,559z"/>
	<path class="st0" d="M0.5,961c0-4,0-8,0-12c2.3-10,6.8-19,14.1-26.3c11.2-11.1,22-22.9,34.2-32.9c31.6-25.8,63.5-51.2,95.9-76.1
		c22-16.9,46.2-29.9,74.4-33.1c17.5-2,31.4,3.9,40,19.3c7.9,14.1,7.2,28.7,2.9,43.6c-5.5,19.4-16.7,35.3-32.2,47.8
		c-34.2,27.8-68.8,55.2-103.5,82.4c-13.7,10.7-27.9,21.2-44.3,27.6c-7.6,3-15.6,5.1-23.5,7.7c-5.7,0-11.3,0-17,0
		c-0.4-0.3-0.8-0.7-1.2-0.8c-16.7-3.6-27.2-14.4-33.8-29.4C4,973.1,2.5,966.9,0.5,961z"/>
</g>
</svg>
