<svg xmlns="http://www.w3.org/2000/svg" width="29.969" height="37.938" viewBox="0 0 29.969 37.938">
  <defs>
    <style>
      .cls-1 {
        fill: #49deb6;
        fill-opacity: 0;
        stroke: #fff;
        stroke-linejoin: round;
        stroke-width: 2px;
        fill-rule: evenodd;
      }
    </style>
  </defs>
  <path class="cls-1" d="M854.683,648.732H833.624a3.451,3.451,0,0,1-3.453-3.449V630.454a3.451,3.451,0,0,1,3.453-3.449h0.259v-4.028a10.209,10.209,0,0,1,20.417,0v4.028h0.383a3.451,3.451,0,0,1,3.453,3.449v14.829A3.451,3.451,0,0,1,854.683,648.732Zm-12.958-5a0.262,0.262,0,0,0,.054.219,0.259,0.259,0,0,0,.2.1l4.259,0.027h0a0.265,0.265,0,0,0,.265-0.265,0.269,0.269,0,0,0-.01-0.07l-1.143-5.512a2.9,2.9,0,1,0-2.494-.042Zm7.555-20.756a5.188,5.188,0,0,0-10.376,0v4.028H849.28v-4.028Z" transform="translate(-829.156 -611.781)"/>
</svg>
