<?xml version="1.0" encoding="utf-8"?>
<!-- Generator: Adobe Illustrator 25.2.0, SVG Export Plug-In . SVG Version: 6.00 Build 0)  -->
<svg version="1.1" id="Basic_Middle" xmlns="http://www.w3.org/2000/svg" xmlns:xlink="http://www.w3.org/1999/xlink" x="0px"
	 y="0px" viewBox="0 0 561 987" style="enable-background:new 0 0 561 987;" xml:space="preserve">
<style type="text/css">
	.st0{fill:#ED1414;}
</style>
<g>
	<path class="st0" d="M321.4,0c5.7,0,11.3,0,17,0c3.5,0.7,7.1,1.4,10.6,2.2c21.3,4.5,37.3,15.4,43.7,37.4c1,3.5,1.8,7,2.7,10.4
		c0,4.7,0,9.3,0,14c-1.3,4.9-2.2,10-3.9,14.8c-8,22.4-23.5,38.1-44.7,47.9c-32.3,14.8-64.8,29.3-97.5,43.3
		c-16,6.8-32.5,12.4-48.9,18.3c-4.2,1.5-8.7,1.9-13.1,2.8c-2,0-4,0-6,0c-4.9-1.5-10-2.5-14.6-4.5c-11.7-5.2-19.4-14.8-26.1-25.3
		c-9-14.1-15.7-29.1-20.2-45.2c0-4.7,0-9.3,0-14c2.9-12.6,9.6-22.9,19.7-30.8c5-3.9,10.1-7.6,15.4-11c18.2-11.7,37.9-20.4,57.8-29
		c28.8-12.4,58.3-22.3,89-28.4C308.6,1.6,315.1,0.9,321.4,0z"/>
	<path class="st0" d="M489.4,146c5.7,0,11.3,0,17,0c0.9,0.4,1.8,0.9,2.7,1c27.5,3.4,44.9,24.7,50.1,48.4
		c4.8,21.8-3.8,40.5-17.4,56.7c-18.1,21.6-40.9,38.3-64.3,53.5c-23.2,15.1-47.9,27.6-74.1,36.9c-17,6.1-33.5,13.6-52.1,14.4
		c-30.3,1.4-56.9-14.5-68.8-42.5c-3.2-7.5-4.8-15.7-7.1-23.6c0-5,0-10,0-15c1.7-5.5,2.8-11.2,5.1-16.4c6-13.4,17.1-22.4,28.5-30.8
		c43.1-32,91.2-54.4,141.8-71.5C463.5,152.9,476.6,149.7,489.4,146z"/>
	<path class="st0" d="M216.4,537c0-2.3,0-4.7,0-7c2.2-9.5,6.3-18.2,13-25.3c5.3-5.7,10.7-11.6,16.9-16.2
		c18.8-14.3,38.3-27.7,57.1-42c23.5-17.9,48.6-33.5,74.9-46.9c20-10.2,40.9-16.2,63.4-7.5c18.3,7.1,30.4,19,32.8,39.5
		c2,17-3.2,31.8-11.8,46c-8.9,14.6-21.6,25.4-34.8,35.5c-22.1,16.9-45,32.7-67.8,48.6c-8.4,5.9-17.4,11.1-26.3,16.2
		c-12.7,7.2-26.1,12.9-40.4,16.1c-6,0-12,0-18,0c-1.3-0.4-2.5-0.9-3.8-1.1c-26.1-4-47.5-23.7-53.6-49.3
		C217.6,541.4,217,539.2,216.4,537z"/>
	<path class="st0" d="M0.4,927C4.1,909.3,17,898.1,29,886.1c21.4-21.4,45.7-39.4,69.8-57.4c18.7-14,39.3-24.7,62.5-28.8
		c7.8-1.4,16.4-1.5,24.2-0.1c15.2,2.8,26.7,17,28.9,33.9c2.4,17.7-3.1,33.6-11.5,48.7c-6.9,12.3-16.6,22.3-27.5,30.8
		c-23.4,18.4-47.2,36.4-71.2,54c-13.1,9.6-28,15.9-44.1,18.8c-0.6,0.1-1.1,0.6-1.6,1c-5.7,0-11.3,0-17,0c-0.4-0.3-0.8-0.7-1.2-0.8
		c-16.7-3.6-27.2-14.4-33.8-29.4c-2.5-5.7-4-11.8-6-17.8C0.4,935,0.4,931,0.4,927z"/>
</g>
</svg>
