<?xml version="1.0" encoding="utf-8"?>
<!-- Generator: Adobe Illustrator 25.2.0, SVG Export Plug-In . SVG Version: 6.00 Build 0)  -->
<svg version="1.1" id="Square_Small" xmlns="http://www.w3.org/2000/svg" xmlns:xlink="http://www.w3.org/1999/xlink" x="0px"
	 y="0px" viewBox="0 0 514 982" style="enable-background:new 0 0 514 982;" xml:space="preserve">
<style type="text/css">
	.st0{fill:#FE0101;}
</style>
<g>
	<path class="st0" d="M118.1,114c0-6,0-12,0-18c4.1-12.7,11.6-23,22.1-31.2c7.2-5.6,15.2-10,22.7-15.1c1.1,0,1.9-0.5,2.4-1.5
		c0.9-0.5,1.7-1,2.6-1.5c1.8-0.3,3.3-1.1,4.5-2.5c3.8-1.9,7.6-3.8,11.5-5.7c1.8-0.1,3.3-0.9,4.7-2c0.8-0.3,1.5-0.7,2.3-1
		c1.1,0.2,2-0.2,2.6-1.1c0.8-0.3,1.6-0.6,2.4-0.9c1.1,0.1,2-0.2,2.6-1.1c0.8-0.3,1.6-0.6,2.4-1c1.1,0.2,2-0.2,2.7-1
		c1.8-0.7,3.5-1.4,5.3-2.1c1.1,0.3,2,0,2.6-1c2.8-1,5.6-2,8.4-3c1.6,0.5,2.9-0.5,4.3-0.9c20.3-6.8,40.9-12.5,61.7-17.3
		c2.7-0.6,5.6-0.6,8-2.4c0.6-0.1,1.3-0.2,1.9-0.3c1.2,0.5,2.2,0,3.1-0.7c0.6-0.1,1.3-0.2,1.9-0.4c5.8-1.6,9.7,1.2,13.1,5.4
		c0.8,1,1.5,2.2,2.9,2.5c0.8,0.9,1.6,1.8,2.4,2.7c0.6,2,1.8,3.4,3.5,4.4c1.2,1.5,2.3,3.1,3.5,4.6c0,1.1,0.5,1.9,1.6,2.2
		c0.4,0.6,0.8,1.2,1.2,1.8c0,1.2,0.5,2,1.6,2.4c0,0.3,0.1,0.5,0.4,0.6c0.3,1.8,1.2,3.3,2.7,4.3c1.5,2.9,3.1,5.7,4.6,8.6
		c0,1.1,0.3,2,1.2,2.6c1.3,2.8,2.6,5.6,3.9,8.4c0.7,3.5,2.1,6.7,3.8,9.8c4.6,14.1,8.2,28.4,8.5,43.4c0.1,4.3-1,6.8-5,9.1
		c-32.8,19.2-66.9,35.7-101.9,50.5c-20,8.5-39.7,18-61.6,21c-3.4,0-6.8-0.4-10.2,0.3c-9.5-0.6-16.9-5.8-24-11.5
		c-9.6-7.6-15.1-18.5-21.2-28.7C125.8,136.4,122.2,125.1,118.1,114z"/>
	<path class="st0" d="M275.1,288c0-6.3,0-12.7,0-19c0.3-0.3,0.9-0.6,0.9-0.9c1.4-11.6,7-21,15-29.1c15.3-15.6,33.7-27.1,52.5-37.9
		c34.7-19.9,71.9-34.4,108.8-49.7c4-1.7,6.4-1.1,9.4,2c29.2,29.1,44,65.1,50.4,105.2c0.2,1.3-0.6,3.2,1.8,3.5c0,4,0,8,0,12
		c-1.6-0.4-2.4,1-3.3,1.7c-33.5,25.7-70.4,45.3-109,62c-13.1,5.6-26.4,10.9-40.4,13.8c-0.7,0.2-1.4,0.4-2.1,0.6
		c-3,0.2-6-0.4-8.9,0.5c-1.4-0.1-2.8-0.1-4.2-0.2c-0.6-0.1-1.3-0.3-1.9-0.3c-30-1.4-50.3-16.8-62.7-43.6
		C278.3,301.9,277.6,294.7,275.1,288z"/>
	<path class="st0" d="M292,589.9c-6.7,0-13.3,0-20,0c-1.5-1.8-3.9-1.4-5.8-2c-25.8-7.2-43.6-22.5-49.7-49.5c-0.4-1.8,0.5-4-1.4-5.4
		c0-2.3,0-4.7,0-7c0.3-0.3,0.9-0.7,0.9-1c1.1-12.6,7.1-22.8,16.1-31.2c37.7-35.1,81.2-61.4,127.8-82.6c9.7-4.4,20-7.4,30.1-11.1
		c1.3,0,2.7,0,4,0c0.2,1.9,1.9,2.6,3,3.7c13.8,13.9,24.7,29.8,32.6,47.7c3.9,8.9,6.3,18.3,9.4,27.5c0,1.3,0,2.7,0,4
		c-1.9,0.7-2.7,2.4-3.7,3.8c-10.6,13.5-22.7,25.6-35.5,37c-25.1,22.5-51.6,42.8-82.1,57.6C309.4,585.4,300.7,587.5,292,589.9z"/>
	<path class="st0" d="M186.9,887c0,1,0,2,0,3c-1.5-0.3-2,0.9-2.6,1.8c-16,23.1-36.7,41.4-59.9,57c-13,8.7-25.4,18.2-39.7,24.6
		c-8.6,3.8-17.6,6-26.6,8.5c-6,0-12,0-18,0c-0.2-0.3-0.3-0.7-0.6-0.7c-17.2-4-27.7-15.4-34.3-31c-2-4.6-3.4-9.5-5.1-14.2
		c0-5.3,0-10.7,0-16c3.1-9.7,7.8-18.4,15.1-25.6c29-28.3,61.2-52.2,96.3-72.3c7.3-4.2,15-7.8,22.6-11.6c2-0.7,3.4,0.2,5,1.3
		c22.4,14.8,37,35.3,44,61.3C184.4,877.7,184.7,882.6,186.9,887z"/>
</g>
</svg>
