<?xml version="1.0" encoding="utf-8"?>
<!-- Generator: Adobe Illustrator 25.2.0, SVG Export Plug-In . SVG Version: 6.00 Build 0)  -->
<svg version="1.1" id="Almond_Small" xmlns="http://www.w3.org/2000/svg" xmlns:xlink="http://www.w3.org/1999/xlink" x="0px"
	 y="0px" viewBox="0 0 544 974" style="enable-background:new 0 0 544 974;" xml:space="preserve">
<style type="text/css">
	.st0{fill:#C62020;}
</style>
<g>
	<path class="st0" d="M185.6,179c-2,0-4,0-6,0c-4.9-1.5-10-2.5-14.6-4.5c-11.7-5.2-19.4-14.8-26.1-25.3c-9-14.1-15.7-29.1-20.2-45.2
		c0-4.7,0-9.3,0-14c2.9-12.6,9.6-22.9,19.7-30.9c4.8-3.8,9.8-7.4,15-10.7C184.9,27.9,219.9,15.6,256,6.1c9.1-2.4,18.3-4.1,27.5-6.1
		c11,0,22,0,33,0c1.7,0.4,3.5,0.9,5.2,1.1c17.2,2,33.6,6.1,48.1,16.3c12.4,8.8,15.7,20.8,12.9,35.1c-2.1,10.8-7.4,20.3-13.9,29
		c-10.7,14.3-21.9,28.7-37.9,37.1c-24.4,12.7-49.4,24.5-74.7,35.6c-18.8,8.3-38.3,14.9-57.6,22C194.5,177.7,189.9,178.1,185.6,179z"
		/>
	<path class="st0" d="M276.6,278c0-5,0-10,0-15c1.6-5.3,2.7-10.9,4.9-16c5-11.7,14.2-20,24-27.6c26.4-20.5,55.6-36.3,85.4-51.2
		c29.3-14.6,60-20.9,92.4-20.4c14.9,0.3,29.6,1.8,42.9,9.2c9.6,5.4,16.1,13.3,17,24.3c0.6,7.5,0.1,15.4-1.6,22.7
		c-5.7,23.4-18.4,43.4-33,62c-5.1,6.5-11.7,12.4-18.6,17c-28,18.6-57.7,34.2-88.8,47.1c-15.6,6.5-31.2,13-48.5,13.8
		c-30.3,1.4-56.9-14.5-68.8-42.5C280.5,294.1,278.9,285.9,276.6,278z"/>
	<path class="st0" d="M216.6,524c0-2.3,0-4.7,0-7c2.8-14.4,11.3-25.3,21.6-35c4.6-4.3,9.3-8.6,14.5-12.2
		c31.8-22.1,63.8-44.1,95.8-66.1c13.5-9.3,27-18.4,43.3-22.1c7.9-1.8,15.9-3.1,23.8-4.6c4.3,0,8.7,0,13,0c1.6,0.4,3.1,1,4.7,1.1
		c14.5,1.7,24.7,9.5,27.7,21.2c0.6,2.2,1,4.4,1.6,6.6c0,1.7,0,3.3,0,5c-0.9,4.7-1.5,9.5-2.7,14.1c-7.6,29.8-22.9,55.6-43,78.4
		c-18.8,21.4-41.9,37.9-65.8,53.2c-17.5,11.2-35.9,20.8-56.5,25.3c-6,0-12,0-18,0c-1.3-0.4-2.5-0.9-3.8-1.1
		c-26.5-4.1-48.5-24.3-54.6-50.3C217.7,528.4,217.1,526.2,216.6,524z"/>
	<path class="st0" d="M158.6,800c5.7,0,11.3,0,17,0c1.4,0.4,2.8,0.9,4.3,1.2c13.3,2.8,18.7,9.1,19.7,22.5c0.8,11-1.4,21.5-5.1,31.7
		c-9.4,26-21.7,50-45.2,66.5c-13.9,9.7-27,20.6-41.3,29.7c-10.7,6.9-22.4,12.2-33.9,17.7c-4.8,2.3-10.3,3.2-15.5,4.7
		c-5.7,0-11.3,0-17,0c-0.4-0.3-0.8-0.7-1.2-0.8c-16.7-3.6-27.2-14.4-33.8-29.4c-2.5-5.7-4-11.8-6-17.8c0-4,0-8,0-12
		c2.3-10,6.9-18.9,14.1-26.3c3.7-3.8,7.2-7.9,11.2-11.4c23.2-20.5,48.5-38.3,74.4-55.3c12.4-8.1,25.9-14.1,40.5-17.4
		C146.6,802.4,152.6,801.2,158.6,800z"/>
</g>
</svg>
