<?xml version="1.0" encoding="utf-8"?>
<!-- Generator: Adobe Illustrator 25.2.0, SVG Export Plug-In . SVG Version: 6.00 Build 0)  -->
<svg version="1.1" id="Mountain_Peak_Middle" xmlns="http://www.w3.org/2000/svg" xmlns:xlink="http://www.w3.org/1999/xlink"
	 x="0px" y="0px" viewBox="0 0 585 987" style="enable-background:new 0 0 585 987;" xml:space="preserve">
<style type="text/css">
	.st0{fill:#B73535;}
</style>
<g>
	<path class="st0" d="M423,19c0,0.7,0,1.3,0,2c-2,7.1-3.9,14.3-6.2,21.3c-11.3,34.3-31.7,61.6-64,78.3c-31.9,16.5-64.2,32.2-96.8,47
		c-18.1,8.2-37.2,14-56,20.7c-4.2,1.5-8.7,1.9-13.1,2.8c-2,0-4,0-6,0c-4.9-1.5-10-2.5-14.6-4.5c-11.7-5.2-19.4-14.8-26.1-25.3
		c-9-14.1-15.7-29.1-20.2-45.2c0-4.7,0-9.3,0-14c2.9-12.6,9.6-22.9,19.7-30.8c5-3.9,10.1-7.7,15.4-11C194.4,36,237.3,20.7,281.2,7.9
		c34.2-9.9,68.7-9.7,103-1.5C397.4,9.6,410.1,14.8,423,19z"/>
	<path class="st0" d="M275,291.1c0-5,0-10,0-15c1.6-5.3,2.7-10.9,4.9-16c5-11.7,14.1-20.3,24-27.6c35.7-26.3,73.8-48.7,113.6-68.2
		c21.3-10.4,43.2-18.9,66.9-21.7c5.9-0.7,11.7-1.7,17.6-2.6c5.7,0,11.3,0,17,0c1.2,0.4,2.4,0.8,3.7,1.1c10.8,2.2,21.9,3.7,32.5,6.9
		c10.2,3.1,19.9,8,29.8,12.1c0,1.7,0,3.3,0,5c-0.4,1.2-1,2.4-1.1,3.7c-2.1,24.3-10.3,46.6-23.5,67c-12.9,19.9-30,35.4-50.3,47.7
		c-35.4,21.5-70.5,43.4-108.9,59.2c-16.2,6.7-32.3,13.7-50.4,14.6c-30,1.4-56.9-14.5-68.6-42C279,307.5,277.4,299.1,275,291.1z"/>
	<path class="st0" d="M216,537c0-2.3,0-4.7,0-7c2.9-13.9,11.1-24.6,21.2-34c4.4-4.1,8.8-8.2,13.7-11.6c41.1-28.5,82.1-57.1,123.6-85
		c24.1-16.2,51-24.8,80.4-23.5c10.1,0.5,20.1,2,30.1,3.1c0,4,0,8,0,12c-0.4,3.2-0.9,6.5-1.3,9.7c-5.1,42.3-23.1,78.4-54,107.3
		c-29.2,27.3-62,50.2-96.8,70.1c-12.5,7.2-25.8,12.7-39.9,15.9c-6,0-12,0-18,0c-1.3-0.4-2.5-0.9-3.8-1.1
		c-26.1-4-47.5-23.7-53.6-49.3C217.1,541.4,216.6,539.2,216,537z"/>
	<path class="st0" d="M0,927c5.1-21.8,21.1-35.3,37.7-47.9c28.4-21.6,56.8-43,86-63.4c18.2-12.7,38.1-22.4,60.5-26
		c16.8-2.7,33.5-2.2,50.9,1.8c-0.4,6.7-0.5,13.5-1.2,20.1c-3.9,33.8-17.4,63.5-41.2,87.8c-10.7,11-23.6,20.1-35.9,29.3
		c-19.1,14.3-38.3,28.2-57.9,41.7c-11.7,8-25,13.1-39.1,15.6c-0.6,0.1-1.1,0.6-1.6,1c-5.7,0-11.3,0-17,0c-0.4-0.3-0.8-0.7-1.2-0.8
		c-16.7-3.6-27.2-14.4-33.8-29.4c-2.5-5.7-4-11.8-6-17.8C0,935,0,931,0,927z"/>
</g>
</svg>
