<?xml version="1.0" encoding="utf-8"?>
<!-- Generator: Adobe Illustrator 25.2.0, SVG Export Plug-In . SVG Version: 6.00 Build 0)  -->
<svg version="1.1" id="Round_Large" xmlns="http://www.w3.org/2000/svg" xmlns:xlink="http://www.w3.org/1999/xlink" x="0px"
	 y="0px" viewBox="0 0 612 1018" style="enable-background:new 0 0 612 1018;" xml:space="preserve">
<style type="text/css">
	.st0{fill:#BC4444;}
</style>
<g>
	<path class="st0" d="M187.8,222c-2,0-4,0-6,0c-4.9-1.5-10-2.5-14.6-4.5c-11.7-5.2-19.4-14.8-26.1-25.3c-9-14.1-15.7-29.1-20.2-45.2
		c0-4.7,0-9.3,0-14c2.5-9.8,6.5-19,14.3-25.7c6.7-5.7,13.3-11.8,21-16c21.8-11.8,43.8-23,66.1-33.7C255,42,287.8,26,323.3,16.7
		c20.4-5.3,40.9-10.8,61.6-14.9c21.5-4.3,38.4,3.6,50.1,22.6c9.6,15.6,16,32.2,17.8,50.4c1.8,18.8-3.8,33.8-21.7,42.7
		c-3.4,1.7-6.5,4-10,5.7c-45.4,21.6-90.5,43.8-136.4,64.4C259,199,232.1,208.1,205.7,218C200,220.1,193.8,220.7,187.8,222z"/>
	<path class="st0" d="M275.8,322c0-5,0-10,0-15c0.4-1.1,1-2.1,1.1-3.2c1.2-9,4.3-17.3,10.6-23.7c8-8.1,16.2-16.6,25.6-22.8
		c20.2-13.1,41-25.3,62-37.1c38.6-21.6,77.3-43.3,118.8-59.3c17.9-6.9,35.8-13.8,54.9-16.4c10.6-1.4,20,1.1,28.2,8.5
		c21.5,19.3,30.1,44.5,33.7,72.1c2.3,18-4.1,32.7-17.1,44.8c-3.4,3.2-7,6.3-10.9,8.7c-15.8,9.5-31.7,18.9-47.8,28
		c-43.1,24.5-87.6,46.3-132.8,66.7c-16,7.2-32.3,13.8-50.4,14.7c-30.3,1.4-56.9-14.4-68.8-42.5C279.7,338.1,278.1,329.9,275.8,322z"
		/>
	<path class="st0" d="M216.8,568c0-2.3,0-4.7,0-7c1.9-5.1,2.9-10.7,5.9-15c5.2-7.5,10.7-15.2,17.6-20.8c20.6-16.6,41.4-32.9,63-48.2
		c38.1-26.8,76.6-53,115.3-78.9c15.9-10.6,30.5-23.7,49.1-30.1c2,0,4,0,6,0c12.8,5.7,21.4,15.9,29,27.2c9.1,13.6,17.2,27.7,21,43.8
		c0,2.7,0,5.3,0,8c-2.3,5.8-3.3,12.6-7,17.3c-8.9,11.1-18.4,22-28.8,31.7c-26.3,24.6-55.7,45.4-84.9,66.3
		c-23,16.4-46.5,32-70.3,47.2c-11.8,7.6-25.1,12.5-39,15.5c-6,0-12,0-18,0c-1.3-0.4-2.5-0.9-3.8-1.1c-26.1-4-47.5-23.7-53.6-49.3
		C217.9,572.4,217.3,570.2,216.8,568z"/>
	<path class="st0" d="M0.8,970c0-4,0-8,0-12c3.2-7,5.4-14.7,9.9-20.8c5.9-7.9,13-15.4,20.7-21.5c31.3-24.6,62.7-49.1,94.8-72.5
		c22-16.1,45.2-30.7,68.2-45.3c6.8-4.3,14.7-7,22.5-9.2c10.4-2.9,20.4-0.9,27.9,7.4c5.5,6.2,11.2,12.5,15.5,19.5
		c14.4,23.6,12.8,39.9-5,61.1c-0.4,0.5-0.8,1-1.3,1.5c-16.4,15.9-31.9,32.8-49.4,47.3c-24.4,20.1-49.8,39.1-75.6,57.3
		c-14.7,10.4-30.9,18.9-46.9,27.3c-7.2,3.8-15.5,5.3-23.4,7.8c-5.7,0-11.3,0-17,0c-0.4-0.3-0.8-0.7-1.2-0.8
		c-16.7-3.6-27.2-14.4-33.8-29.4C4.3,982.1,2.8,975.9,0.8,970z"/>
</g>
</svg>
