<?xml version="1.0" encoding="utf-8"?>
<!-- Generator: Adobe Illustrator 25.2.0, SVG Export Plug-In . SVG Version: 6.00 Build 0)  -->
<svg version="1.1" id="Round_Middle" xmlns="http://www.w3.org/2000/svg" xmlns:xlink="http://www.w3.org/1999/xlink" x="0px"
	 y="0px" viewBox="0 0 546 987" style="enable-background:new 0 0 546 987;" xml:space="preserve">
<style type="text/css">
	.st0{fill:#D64747;}
</style>
<g>
	<path class="st0" d="M187.8,191c-2,0-4,0-6,0c-4.9-1.5-10-2.5-14.6-4.5c-11.7-5.2-19.4-14.8-26.1-25.3c-9-14.1-15.7-29.1-20.2-45.2
		c0-4.7,0-9.3,0-14c2.4-8.9,5.5-17.6,12.5-23.9c7.2-6.4,14.6-12.7,22.7-17.8c32.3-20.5,67.4-34.7,104.2-44.6
		c18.9-5.1,38-10,57.2-13.8c21.7-4.3,38.7,3.4,50.5,22.6c9.5,15.4,15.9,31.9,17.7,49.9c1.9,18.9-3.6,34.2-21.7,43.1
		c-27,13.3-53.6,27.7-81.1,39.8c-25.2,11.1-51.4,20.1-77.2,29.7C200,189.1,193.8,189.7,187.8,191z"/>
	<path class="st0" d="M275.8,291c0-5,0-10,0-15c1.7-5.5,2.8-11.2,5.1-16.4c6-13.4,16.9-22.6,28.5-30.8
		c37.5-26.5,77.9-47.9,120.7-64.6c17.1-6.7,34.2-13,52.5-15.5c10.8-1.5,20.3,1.1,28.6,8.6c21.8,19.8,30.5,45.4,33.6,73.6
		c1.7,15.6-2.9,29.4-14.4,39.8c-9.4,8.5-19.5,17.1-30.6,23c-32.5,17.1-65.5,33.3-98.7,49c-15.5,7.4-31.7,13.5-49.4,14.3
		c-30,1.4-56.9-14.4-68.6-42C279.8,307.4,278.2,299,275.8,291z"/>
	<path class="st0" d="M216.8,537c0-2.3,0-4.7,0-7c3.6-16.8,14.6-28.6,27.1-39.3c5.4-4.6,11-9.2,16.8-13.3
		c33-22.7,65.9-45.5,99.3-67.6c16.2-10.7,30.8-24.4,49.7-30.8c2,0,4,0,6,0c12.8,5.7,21.4,15.9,29,27.2c9.1,13.6,17.2,27.7,21,43.8
		c0,2.7,0,5.3,0,8c-2.4,6-3.8,12.5-7.3,17.7c-4.7,7.2-10.3,14.1-16.7,19.8c-18.8,16.6-37.7,33.3-57.6,48.5
		c-16.4,12.6-34.1,23.7-51.7,34.7c-11.8,7.4-24.9,12.2-38.6,15.3c-6,0-12,0-18,0c-1.3-0.4-2.5-0.9-3.8-1.1
		c-26.1-4-47.5-23.7-53.6-49.3C217.9,541.4,217.4,539.2,216.8,537z"/>
	<path class="st0" d="M58.8,987c-5.7,0-11.3,0-17,0c-0.4-0.3-0.8-0.7-1.2-0.8c-16.7-3.6-27.2-14.4-33.8-29.4c-2.5-5.7-4-11.8-6-17.8
		c0-4,0-8,0-12c2.4-10.6,7.3-19.9,15.1-27.4c7.9-7.6,15.7-15.4,24.3-22.2c30.4-24.1,61.5-47.3,95.7-65.8c6.2-3.4,13-5.9,19.9-7.8
		c10.3-2.8,20.2-1,27.3,7.5c6,7.2,12,14.8,16.4,23c12.8,23.9,8.8,46.2-9.4,65.6c-10.3,11-21.5,21.3-33.1,31
		c-22.8,19.1-47.6,35.2-74.3,48.1C75.2,982.7,66.8,984.4,58.8,987z"/>
</g>
</svg>
