<?xml version="1.0" encoding="utf-8"?>
<!-- Generator: Adobe Illustrator 25.2.0, SVG Export Plug-In . SVG Version: 6.00 Build 0)  -->
<svg version="1.1" id="Square_Middle" xmlns="http://www.w3.org/2000/svg" xmlns:xlink="http://www.w3.org/1999/xlink" x="0px"
	 y="0px" viewBox="0 0 552 992" style="enable-background:new 0 0 552 992;" xml:space="preserve">
<style type="text/css">
	.st0{fill:#DD3C3C;}
</style>
<g>
	<path class="st0" d="M186.7,196c-2,0-4,0-6,0c-4.9-1.5-10-2.5-14.6-4.5c-11.7-5.2-19.4-14.8-26.1-25.3c-9-14.1-15.7-29.1-20.2-45.2
		c0-4.7,0-9.3,0-14c3.4-15.5,12.7-27.2,25.7-35.4c14.6-9.2,29.3-18.7,45.2-25.2C240,26.2,291.6,12.6,344,1.8
		c3.3-0.7,5.3,0.3,7.4,2.5c26.2,27,37.5,59.8,38.8,96.8c0.1,3.6-1.6,5.3-4.5,6.9c-41.8,23.4-84.8,44.5-128.7,63.6
		c-18.7,8.1-38.1,14.6-57.2,21.6C195.6,194.7,191.1,195.1,186.7,196z"/>
	<path class="st0" d="M275.7,296c0-5,0-10,0-15c0.3-0.6,0.9-1.1,0.9-1.7c1.5-14.5,9.2-25.4,19.6-34.8c17.2-15.5,36.6-27.7,56.9-38.4
		c44.7-23.6,91.8-42,138.5-61.1c2.9-1.2,4.6-0.4,6.5,1.7c27.9,30.9,46.4,66.4,53,107.8c0.6,3.8-0.5,5.8-3.5,7.7
		c-9.4,6-18.8,12.1-27.8,18.6c-36.7,26.7-76,49-117.8,66.7c-16.2,6.8-32.3,13.8-50.4,14.6c-30.3,1.4-56.9-14.5-68.8-42.5
		C279.7,312.1,278,303.9,275.7,296z"/>
	<path class="st0" d="M216.7,542c0-2.3,0-4.7,0-7c3.8-17.4,15.3-29.4,28.3-40.3c6.1-5.1,12.4-10.2,19-14.7
		c31.2-21.3,62.4-42.6,93.8-63.5c17.5-11.6,35.4-22.5,55.5-29.2c2.9-1,5-0.9,7,1.5c9.9,11.2,20.7,21.8,29.6,33.7
		c7.3,9.8,12.3,21.2,18.3,32c1.3,2.4,1.3,4.4-0.8,6.7c-20,21.7-39.2,44.1-59.9,65c-22.8,23-48.6,42.5-77,58.3
		c-11.6,6.5-23.8,11.5-36.8,14.5c-6,0-12,0-18,0c-1.3-0.4-2.5-0.9-3.8-1.1c-26.1-4-47.5-23.7-53.6-49.3
		C217.8,546.4,217.3,544.2,216.7,542z"/>
	<path class="st0" d="M0.7,944c0-4,0-8,0-12c2.4-9.1,6.1-17.3,12.4-24.5c13.1-15.1,29.1-26.8,44.7-39c29.8-23.3,61.9-42.5,96.4-58.2
		c9.2-4.2,15.5-2.8,22.8,3.1c19,15.6,29.2,36.4,35.5,59.4c0.5,1.9-0.8,4.8-2.1,6.6c-22.2,30.5-49.1,56.2-80.9,76.4
		c-15.6,9.9-31.3,19.6-47.5,28.4c-7.1,3.9-15.5,5.3-23.4,7.8c-5.7,0-11.3,0-17,0c-0.4-0.3-0.8-0.7-1.2-0.8
		c-16.7-3.6-27.2-14.4-33.8-29.4C4.2,956.1,2.7,949.9,0.7,944z"/>
</g>
</svg>
