<?xml version="1.0" encoding="utf-8"?>
<!-- Generator: Adobe Illustrator 25.2.0, SVG Export Plug-In . SVG Version: 6.00 Build 0)  -->
<svg version="1.1" id="Mountain_Peak_Small" xmlns="http://www.w3.org/2000/svg" xmlns:xlink="http://www.w3.org/1999/xlink"
	 x="0px" y="0px" viewBox="0 0 556 974" style="enable-background:new 0 0 556 974;" xml:space="preserve">
<style type="text/css">
	.st0{fill:#AD2121;}
</style>
<g>
	<path class="st0" d="M284,0c11.7,0,23.3,0,35,0c1.3,0.4,2.5,0.8,3.8,1c13.3,2.5,26.8,4.3,39.9,7.5c10.3,2.6,20.2,7,30.3,10.5
		c0,0.7,0,1.3,0,2c-0.3,0.5-0.8,1-1,1.6c-4.4,13.5-7.8,27.5-13.4,40.5c-11.5,26.6-29.9,47.3-56.6,59.9c-14.9,7-29.3,14.9-44.4,21.4
		c-24.8,10.7-49.7,21.1-75.1,30.5c-19.1,7.1-37.5,4.8-52.5-10.5c-4.6-4.7-8.3-10.3-12-15.8c-9.3-13.7-15.6-28.8-20.1-44.6
		c0-4.7,0-9.3,0-14c2.8-6.3,4.9-13.1,8.5-18.9c6-9.4,15.1-15.8,24.5-21.7c33.9-21.5,70.7-35.9,109.6-45.2C268.3,2.3,276.2,1.4,284,0
		z"/>
	<path class="st0" d="M556,170c-1.3,7.3-2.4,14.6-4,21.9c-8.8,38.5-29.7,69.1-62.4,91.1c-31.8,21.4-65.9,38.5-101.6,52.4
		c-13.8,5.4-27.8,9.5-43.1,8.7c-31.7-1.6-57.5-22-65.8-53.1c-1.1-4.3-2.1-8.6-3.1-12.9c0-5,0-10,0-15c1.6-5.3,2.7-10.9,4.9-16
		c5-11.7,14.2-20,24-27.6c25.9-20.1,54.1-36.1,83.7-50.2c21.4-10.2,43.2-18.8,66.9-21.6c5.9-0.7,11.7-1.7,17.6-2.6
		c5.7,0,11.3,0,17,0c1.2,0.4,2.4,0.8,3.7,1.1c10.8,2.2,21.9,3.7,32.5,6.9c10.2,3.1,19.9,8,29.8,12.1C556,166.7,556,168.3,556,170z"
		/>
	<path class="st0" d="M294,582c-6.3,0-12.7,0-19,0c-1.2-0.4-2.4-0.9-3.7-1.1c-26-4.2-47.4-24.2-53.5-49.8c-0.6-2.4-1.2-4.7-1.8-7
		c0-2.3,0-4.7,0-7c1.9-5.2,2.9-11.1,6-15.6c5.2-7.6,10.8-15.4,17.8-21.3c38.2-32.6,80.5-59.4,123.1-85.7
		c23-14.2,48.6-19.3,75.5-17.2c8.2,0.6,16.4,1.9,24.6,2.8c0,4,0,8,0,12c-0.4,1.6-0.9,3.2-1,4.8c-2.9,39.4-17.8,73.9-43.9,103.2
		c-25.3,28.4-55.6,50.7-89.2,68.2C317.9,574,305.7,577.5,294,582z"/>
	<path class="st0" d="M164,796.1c8.7,0,17.3,0,26,0c5.7,1,11.3,2,17,3c0,3.7,0,7.3,0,11c-0.4,1.6-0.9,3.2-1,4.8
		c-2.6,35.7-16.5,66.7-41.2,92.2c-11.5,11.8-25.3,21.4-38.6,31.4c-14.1,10.6-28.1,21.3-44.7,27.8c-7.6,3-15.6,5.1-23.4,7.6
		c-5.7,0-11.3,0-17,0c-0.4-0.3-0.8-0.7-1.2-0.8c-16.7-3.6-27.2-14.3-33.8-29.4C3.5,938.1,2,932,0,926c0-4,0-8,0-12
		c3.9-18.8,17-31.4,30.9-42.5c19.8-15.9,40.4-30.9,61.2-45.5c15.6-11,32.7-19.8,51.2-25.2C150,798.8,157.1,797.7,164,796.1z"/>
</g>
</svg>
