<?xml version="1.0" encoding="utf-8"?>
<!-- Generator: Adobe Illustrator 25.2.0, SVG Export Plug-In . SVG Version: 6.00 Build 0)  -->
<svg version="1.1" id="Mountain_Peak_Large" xmlns="http://www.w3.org/2000/svg" xmlns:xlink="http://www.w3.org/1999/xlink"
	 x="0px" y="0px" viewBox="0 0 615 1003" style="enable-background:new 0 0 615 1003;" xml:space="preserve">
<style type="text/css">
	.st0{fill:#E23030;}
</style>
<g>
	<path class="st0" d="M120,132c0-4.7,0-9.3,0-14c4.3-19.7,18-31.9,34.3-41.2c15.7-9,32-16.8,48.1-25.1c28.9-14.9,59.2-26.3,89.8-37
		c39.7-13.9,79.9-18.4,121.3-9.4c14.8,3.2,29.1,7.8,42.8,14.1c-2.9,23.7-17,55.7-32.9,72.5c-12.7,13.5-27.2,24.8-44.2,32.8
		c-36.4,17.2-72.2,35.6-108.7,52.4c-21.5,9.9-43.9,18.1-66.3,26.1c-19.1,6.8-37.2,4.5-52-10.6c-4.6-4.7-8.3-10.3-12.1-15.8
		C130.8,163,124.5,147.9,120,132z"/>
	<path class="st0" d="M532,142c5.7,0,11.3,0,17,0c1.2,0.4,2.4,0.8,3.7,1.1c10.8,2.2,21.9,3.7,32.5,6.9c10.2,3.1,19.9,8,29.8,12.1
		c0,1.7,0,3.3,0,5c-0.4,2.6-0.9,5.1-1.3,7.7c-5.6,38.4-21.7,71.9-52.7,95.3c-24.7,18.6-51.6,34.7-78.7,49.7
		c-26.3,14.5-53.9,26.5-81.3,38.8c-15.7,7-31.7,13.7-49.4,14.5c-34.8,1.5-62.7-17.7-72.9-51c-8.2-26.8-3.4-50.4,19.2-68.6
		c8.8-7.1,17.8-14,27.3-20.2c39-25.6,79.6-48,122.2-67.1c21.6-9.7,43.2-18.7,67-21.5C520.3,143.9,526.1,142.9,532,142z"/>
	<path class="st0" d="M216,553c0-2.3,0-4.7,0-7c1.7-4.8,2.6-10.2,5.4-14.2c5.4-7.7,11.1-15.6,18.2-21.7c14-12,28.6-23.4,43.7-34
		c40.7-28.5,81.6-56.8,122.8-84.6c24.3-16.3,51.2-25.1,80.8-23.7c10.1,0.5,20.1,2,30.1,3.1c0,4,0,8,0,12c-0.7,4.7-1.4,9.4-2.1,14.2
		c-5.8,42.3-25.2,77.6-56.6,105.9c-16.5,14.9-34.7,27.9-52.5,41.3c-23.8,17.9-47.4,36-73.7,50.3c-12.4,6.7-25.3,12.3-39.1,15.4
		c-6,0-12,0-18,0c-1.3-0.4-2.5-0.9-3.8-1.1c-26.1-4-47.5-23.7-53.6-49.3C217.1,557.4,216.6,555.2,216,553z"/>
	<path class="st0" d="M58,1003c-5.7,0-11.3,0-17,0c-0.4-0.3-0.8-0.7-1.2-0.8c-16.7-3.6-27.2-14.3-33.8-29.4C3.5,967.1,2,961,0,955
		c0-4,0-8,0-12c2.3-9.5,6.2-18.2,13.1-25.2c6.8-6.8,13.3-14.2,20.9-20c34.9-26.7,70-53,105.2-79.2c19.6-14.5,40.5-26.8,64-34
		c6.7-2.1,13.8-3.1,20.7-4.6c8.7,0,17.3,0,26,0c5.7,1,11.3,2,17,3c0,3.7,0,7.3,0,11c-0.7,4.6-1.4,9.1-2,13.7
		c-5.7,39.6-23.8,72.4-55.4,97.1c-27.5,21.5-55.7,42.1-83.8,62.9c-14,10.4-27.9,21.1-44.4,27.6C73.8,998.3,65.8,1000.5,58,1003z"/>
</g>
</svg>
