<?xml version="1.0" encoding="utf-8"?>
<!-- Generator: Adobe Illustrator 25.2.0, SVG Export Plug-In . SVG Version: 6.00 Build 0)  -->
<svg version="1.1" id="Almond_Middle" xmlns="http://www.w3.org/2000/svg" xmlns:xlink="http://www.w3.org/1999/xlink" x="0px"
	 y="0px" viewBox="0 0 565 983" style="enable-background:new 0 0 565 983;" xml:space="preserve">
<style type="text/css">
	.st0{fill:#E51F1F;}
</style>
<g>
	<path class="st0" d="M187.7,187c-2,0-4,0-6,0c-4.9-1.5-10-2.5-14.6-4.5c-11.7-5.2-19.4-14.8-26.1-25.3c-9-14.1-15.7-29.1-20.2-45.2
		c0-4.7,0-9.3,0-14c2.9-12.6,9.6-22.9,19.7-30.9c5-3.9,10.1-7.6,15.4-11c38.3-24,80.5-38.5,123.8-50c9.2-2.5,18.7-4.1,28.1-6.2
		c10.7,0,21.3,0,32,0c1.9,0.4,3.8,0.9,5.8,1.1c13.1,1.5,26,4.1,37.8,10.2c19.2,9.8,25.5,24.4,19.3,45.1c-5.8,19.3-18.5,34.1-32.3,48
		c-5.1,5.2-10.5,10.7-16.9,13.9c-28.9,14.4-57.8,28.7-87.3,41.7c-19.7,8.7-40.3,15.6-60.6,22.9C199.8,185,193.6,185.7,187.7,187z"/>
	<path class="st0" d="M275.7,287c0-5,0-10,0-15c1.6-5.3,2.7-10.9,4.9-16c5-11.7,14.2-20,24-27.6c35.8-27.7,76.1-47.1,117.3-65.3
		c30.3-13.4,61.6-19.3,94.3-17.5c9.8,0.6,19.8,3,28.9,6.7c12.9,5.2,19.3,16.1,19.3,30c0,6.6-0.7,13.4-2.5,19.7
		c-6.8,24-20.1,44.5-35.6,63.6c-3.6,4.5-8,8.6-12.7,11.9c-12.6,8.7-25.1,17.8-38.6,24.9c-24.7,13.1-49.8,25.4-75.2,37
		c-15.2,6.9-30.8,12.9-48.1,13.7c-30.3,1.4-56.9-14.5-68.8-42.5C279.6,303.1,278,294.9,275.7,287z"/>
	<path class="st0" d="M216.7,533c0-2.3,0-4.7,0-7c3.6-16.8,14.4-28.9,27.2-39.3c12.6-10.3,25.5-20.4,38.9-29.7
		c25.6-17.7,51.7-34.6,77.6-52c13.5-9.1,26.8-18.7,43.1-22.4c7.7-1.8,15.6-3.1,23.3-4.7c4,0,8,0,12,0c1.6,0.4,3.1,0.9,4.7,1.1
		c14.6,2.1,26.6,9.8,27.5,26.2c0,0.6,0.5,1.1,0.8,1.7c0,1.3,0,2.7,0,4c-1.6,7.3-2.6,14.7-4.9,21.8c-11.1,33.8-30.6,62.2-57.1,85.8
		c-23.8,21.2-48.6,41-76.9,56c-12.4,6.6-25.3,12.3-39.1,15.4c-6,0-12,0-18,0c-1.3-0.4-2.5-0.9-3.8-1.1c-26.1-4-47.5-23.7-53.6-49.3
		C217.8,537.4,217.2,535.2,216.7,533z"/>
	<path class="st0" d="M178.7,795c5.7,0,11.3,0,17,0c1.4,0.4,2.8,0.9,4.3,1.2c11.4,2.4,17.9,7.9,19.2,18.1c0.8,6,1,12.4-0.1,18.4
		c-5.1,28.3-18.3,52.4-38.5,72.8C165,921.2,147,933.7,129,946.3c-15.1,10.5-29.5,22.3-46.9,29.1c-7.6,3-15.6,5.1-23.4,7.6
		c-5.7,0-11.3,0-17,0c-0.4-0.3-0.8-0.7-1.2-0.8c-16.7-3.6-27.2-14.4-33.8-29.4c-2.5-5.7-4-11.8-6-17.8c0-4,0-8,0-12
		c3.2-7,5.4-14.7,9.9-20.7c5.9-7.9,12.8-15.5,20.7-21.4c29.5-22.1,59.4-43.7,89.5-65c12.3-8.7,26.2-14.1,40.9-17.5
		C167.3,797.1,173,796.1,178.7,795z"/>
</g>
</svg>
