<?xml version="1.0" encoding="utf-8"?>
<!-- Generator: Adobe Illustrator 25.2.0, SVG Export Plug-In . SVG Version: 6.00 Build 0)  -->
<svg version="1.1" id="Round_Small" xmlns="http://www.w3.org/2000/svg" xmlns:xlink="http://www.w3.org/1999/xlink" x="0px"
	 y="0px" viewBox="0 0 510 975" style="enable-background:new 0 0 510 975;" xml:space="preserve">
<style type="text/css">
	.st0{fill:#FE0000;}
	.st1{fill:#FE0101;}
</style>
<g>
	<path class="st0" d="M280.9,0.1c5.7,0,11.3,0,17,0c0.2,0.3,0.4,0.7,0.5,0.7c13.1,0.5,22,8.3,29.8,17.6
		c9.6,11.5,15.7,24.8,19.5,39.2c1.6,6.1,2.7,12.3,4.1,18.4c0,5,0,10,0,15c-0.3,0.2-0.8,0.3-0.8,0.5c-1.4,14.6-10.3,23.4-22.9,29.4
		c-24.9,11.9-49.5,24.4-74.9,35c-17.6,7.3-35,15.5-53.6,20.4c-3.9,1-8,0.7-11.7,2.6c-3.7,0-7.3,0-11,0c-9.3-2.8-18.1-6.7-25.3-13.6
		c-8-7.7-13.3-17.3-18.9-26.7c-6.1-10.2-9.6-21.5-13.8-32.6c0-6,0-12,0-18c2.6-5.4,4-11.3,7.6-16.3c7.1-9.7,16.5-16.8,26.4-23.2
		c31.6-20.4,66.6-32.8,102.7-42.4C264,3.9,272.5,2.1,280.9,0.1z"/>
	<path class="st0" d="M509.8,242c0,5.3,0,10.7,0,16c-2,4.3-3.3,8.8-6.2,12.7c-4.9,6.7-11.1,11.8-17.9,16.4
		c-20.7,14-43.4,24.1-65.7,34.9c-17.6,8.5-35.4,16.2-54.4,21.3c-5.2,1.4-10.7,0.5-15.8,2.6c-1.3,0-2.7,0-4,0c-0.5-1.3-1.6-0.9-2.5-1
		c-30.7-1.6-51-17.7-63-45.3c-2.6-6-3.1-12.6-5.5-18.6c0-6.3,0-12.7,0-19c0.3-0.3,0.9-0.6,0.9-1c1.4-11.5,6.9-21,14.9-29.1
		c15.2-15.6,33.4-27.3,52.3-37.7c31.5-17.3,63.6-33.4,97.8-45.2c4.7,0,9.3,0,14,0c5.2,2.2,10,4.7,14.2,8.6
		c17.7,16.4,27.2,37.5,34.5,59.8C506.2,225.5,507.8,233.8,509.8,242z"/>
	<path class="st1" d="M376.9,388.1c2,0,4,0,6,0c9.9,3.5,16.9,10.6,23.1,18.6c12.3,15.9,22,33.1,27.9,52.3c0,5.7,0,11.3,0,17
		c-2.3,4.1-3,8.9-6.1,12.7c-6.8,8.4-13.4,17-21.5,24.2c-33.7,30-68.5,58-113.3,70.1c-7,0-14,0-21,0c-0.3-1.1-1.2-0.9-2-1
		c-24.8-5.2-42.5-18.9-51.7-42.9c-1.4-3.6-1.3-7.6-3.3-11c0-4,0-8,0-12c2.6-6.7,5.2-13.3,9.6-19.2c7.1-9.6,15.9-17.3,25.2-24.6
		c26.3-20.6,54.3-38.8,82.4-56.8C346.9,406,360,393.9,376.9,388.1z"/>
	<path class="st1" d="M57.9,974.9c-6,0-12,0-18,0c-0.2-0.2-0.4-0.7-0.6-0.7c-16.6-3.8-27.1-14.7-33.7-29.7c-2.2-5-3.8-10.4-5.7-15.5
		c0-5.3,0-10.7,0-16c4.1-15,13.8-26.3,25.3-35.7c31.7-25.8,62.4-53.3,101.6-68.2c4.3,0,8.7,0,13,0c4.6,1.4,8.7,3.6,12.5,6.7
		c8,6.4,14.3,14.1,19.4,23c4.7,8.2,7.6,17.2,10.1,26.3c0,4,0,8,0,12c-0.3,0.3-0.9,0.6-0.9,0.9c-2.2,12.7-8.6,23.1-17.6,32.1
		c-8.6,8.6-18.4,15.8-28.2,22.9c-16.4,11.8-32.1,24.6-50.7,33.2C75.9,970.2,66.8,972.2,57.9,974.9z"/>
</g>
</svg>
