<?xml version="1.0" encoding="utf-8"?>
<!-- Generator: Adobe Illustrator 25.2.0, SVG Export Plug-In . SVG Version: 6.00 Build 0)  -->
<svg version="1.1" id="Basic_Small" xmlns="http://www.w3.org/2000/svg" xmlns:xlink="http://www.w3.org/1999/xlink" x="0px"
	 y="0px" viewBox="0 0 529 975" style="enable-background:new 0 0 529 975;" xml:space="preserve">
<style type="text/css">
	.st0{fill:#D12626;}
</style>
<g>
	<path class="st0" d="M117.5,105c0-4.7,0-9.3,0-14c2.8-6.3,4.4-13.7,8.7-18.7c6.7-7.9,14.6-15.2,23.2-20.9
		C187,26.5,229,12.3,272.9,3.1c6.8-1.4,13.7-2.1,20.6-3.1c5.7,0,11.3,0,17,0c3.5,0.7,7.1,1.4,10.6,2.2c21.6,4.6,37.5,15.7,43.9,37.9
		c1,3.3,1.7,6.6,2.5,10c0,4.7,0,9.3,0,14c-0.6,2.4-1.1,4.7-1.7,7.1c-5.3,22.8-18.9,39.7-39,50.5c-19.8,10.7-40.4,20.2-61.2,29.2
		c-25.8,11.2-51.2,23.7-79.2,29.1c-3.3,0-6.7,0-10,0c-4.4-1.5-8.9-2.6-13-4.5c-11.6-5.3-19.2-14.9-25.9-25.4
		C128.6,136,121.9,121,117.5,105z"/>
	<path class="st0" d="M275.5,279c0-5,0-10,0-15c1.6-5.3,2.8-10.8,5-15.9c4.9-11.5,14-19.8,23.6-27.2c33.4-26,70.3-45.8,109.5-61.5
		c13.3-5.3,27.3-9,40.9-13.4c5.7,0,11.3,0,17,0c1.4,0.4,2.8,0.9,4.3,1.2c28.8,4.5,51,29,52.6,58.1c1.7,32.3-12.7,57.4-36.2,77.9
		c-14.5,12.6-32.2,20-49.2,28.2c-29.4,14.2-58.2,30.5-91.4,34.6c-1.7,0-3.3,0-5,0c-1.3-0.2-2.6-0.6-3.9-0.7
		c-29.3-2.2-49.3-17.5-60.8-44C278.8,294.3,277.5,286.5,275.5,279z"/>
	<path class="st0" d="M215.5,524c0-2.3,0-4.7,0-7c4.5-20.1,18.6-33.2,33.7-45.3c8.7-7,17.6-13.6,26.8-20
		c23.3-16.3,46.7-32.4,70.2-48.4c13.2-9.1,27.3-16.3,43.3-19.2c5,0,10,0,15,0c1.4,0.4,2.8,0.9,4.2,1.2c19.1,3.6,32.5,13.6,37.4,33.2
		c1,3.8,1.6,7.7,2.4,11.6c0,2.7,0,5.3,0,8c-0.3,0.9-0.8,1.8-0.9,2.8c-1.1,12.7-5.5,24.2-11.7,35.2c-10.2,18-24.3,32.8-40,46.2
		c-24.7,21.2-50.8,40.4-81,53.4c-6.9,3-14.3,5-21.4,7.5c-6.3,0-12.7,0-19,0c-2.3-0.7-4.6-1.6-7-2.2c-26.3-7.2-44-23-50.5-50.1
		C216.5,528.5,216,526.2,215.5,524z"/>
	<path class="st0" d="M0.5,927c0-4,0-8,0-12c3.7-18.1,16.3-30,29.3-41.4c13.3-11.6,27.3-22.3,41-33.3c13.9-11.3,28.9-20.6,45.2-27.8
		c10.4-4.6,21.2-7.4,32.4-9.3c3.3,0,6.7,0,10,0c0.6,0.3,1.2,0.7,1.8,0.8c12.3,1.6,20.8,8.4,26.7,19.1c3.3,6,4.5,12.7,6.5,19.1
		c0,4.3,0,8.7,0,13c-1,0.6-0.9,1.7-1.1,2.6c-2.8,18.2-10.5,33.9-23.4,47.3c-12.7,13.1-27.3,23.7-41.9,34.3
		c-14.4,10.4-28.5,21.2-45,28.2c-7.6,3.2-15.7,4.7-23.4,7.5c-5.7,0-11.3,0-17,0c-0.4-0.3-0.8-0.7-1.2-0.8
		c-16.7-3.6-27-14.5-33.9-29.3C3.7,939,2.3,932.9,0.5,927z"/>
</g>
</svg>
